# xmcd CD database file
#
# Track frame offsets:
#	150
#	15572
#	42147
#	66480
#	78547
#	91850
#	107410
#	128437
#	152632
#	174405
#
# Disc length: 2519 seconds
#
# Revision: 0
# Processed by: cddbd v1.5.1PL0 Copyright (c) Steve Scherf et al.
# Submitted via: CDex 1.51
#
DISCID=6d09d50a
DTITLE=Vivian Lord - Route 66
DYEAR=1986
DGENRE=Jazz
TTITLE0=Route 66
TTITLE1='Round Midnight
TTITLE2=Try A Little Tenderness
TTITLE3=Blue Skies
TTITLE4=Gee, Baby Ain't I Good To You
TTITLE5=Trav'lin Light
TTITLE6=Black Coffee
TTITLE7=My Foolish Heart
TTITLE8=If You Could See Me Now
TTITLE9=I Hear Music
EXTD=YEAR: 1986
EXTT0=
EXTT1=
EXTT2=
EXTT3=
EXTT4=
EXTT5=
EXTT6=
EXTT7=
EXTT8=
EXTT9=
PLAYORDER=
